<svg width="28" height="34" viewBox="0 0 28 34" fill="none" xmlns="http://www.w3.org/2000/svg">
<g id="&#60;Group&#62;">
<g id="&#60;Group&#62;_2">
<path id="&#60;Path&#62;" d="M22.6235 17.9595C22.6399 16.6867 22.978 15.4386 23.6064 14.3316C24.2347 13.2245 25.1329 12.2943 26.2173 11.6276C25.5284 10.6438 24.6196 9.83407 23.563 9.26288C22.5064 8.69169 21.3312 8.37472 20.1308 8.33716C17.5699 8.06837 15.0873 9.86953 13.7823 9.86953C12.4521 9.86953 10.4429 8.36385 8.27937 8.40837C6.87992 8.45358 5.51604 8.86053 4.32062 9.58957C3.12521 10.3186 2.13903 11.3449 1.45817 12.5684C-1.49118 17.6747 0.708765 25.1793 3.534 29.3069C4.94752 31.328 6.59952 33.5857 8.76113 33.5057C10.8764 33.4179 11.6664 32.1568 14.2197 32.1568C16.7493 32.1568 17.4905 33.5057 19.696 33.4548C21.9658 33.4179 23.3958 31.4246 24.7598 29.3843C25.7754 27.9442 26.5569 26.3525 27.0754 24.6682C25.7567 24.1105 24.6314 23.1769 23.8397 21.9839C23.048 20.7909 22.6251 19.3913 22.6235 17.9595V17.9595Z" fill="white"/>
<path id="&#60;Path&#62;_2" d="M18.4578 5.62227C19.6954 4.1366 20.3051 2.22703 20.1575 0.299072C18.2667 0.497659 16.5202 1.40131 15.2659 2.82998C14.6527 3.52792 14.183 4.33988 13.8837 5.21946C13.5844 6.09903 13.4614 7.02897 13.5218 7.9561C14.4675 7.96583 15.4031 7.76086 16.2581 7.3566C17.1131 6.95234 17.8652 6.35934 18.4578 5.62227Z" fill="white"/>
</g>
</g>
</svg>
