<svg width="115" height="25" viewBox="0 0 115 25" fill="none" xmlns="http://www.w3.org/2000/svg">
<g id="Group">
<path id="Vector" d="M12.3619 14.388H5.14348L3.40998 19.5065H0.352539L7.18973 0.569092H10.3663L17.2035 19.5065H14.0939L12.3619 14.388ZM5.89108 12.026H11.6129L8.79222 3.7189H8.71329L5.89108 12.026Z" fill="white"/>
<path id="Vector_2" d="M31.9696 12.6035C31.9696 16.894 29.6732 19.6506 26.2077 19.6506C25.3298 19.6965 24.4567 19.4943 23.6884 19.0671C22.9202 18.6399 22.2877 18.005 21.8635 17.235H21.7979V24.0737H18.9639V5.69926H21.7071V7.99569H21.7593C22.203 7.22943 22.8461 6.59779 23.6202 6.16798C24.3944 5.73816 25.2705 5.52625 26.1555 5.55479C29.6597 5.55481 31.9696 8.32482 31.9696 12.6035ZM29.0566 12.6035C29.0566 9.80814 27.612 7.97038 25.4079 7.97038C23.2425 7.97038 21.786 9.84684 21.786 12.6035C21.786 15.3854 23.2425 17.2485 25.4079 17.2485C27.612 17.2485 29.0566 15.4241 29.0566 12.6035Z" fill="white"/>
<path id="Vector_3" d="M47.1659 12.6034C47.1659 16.894 44.8695 19.6506 41.404 19.6506C40.5261 19.6965 39.653 19.4943 38.8847 19.0671C38.1164 18.6399 37.484 18.005 37.0598 17.235H36.9942V24.0737H34.1602V5.69924H36.9034V7.99568H36.9555C37.3992 7.22942 38.0423 6.59778 38.8165 6.16797C39.5906 5.73816 40.4668 5.52625 41.3518 5.55479C44.856 5.55479 47.1659 8.3248 47.1659 12.6034ZM44.2529 12.6034C44.2529 9.80812 42.8083 7.97036 40.6042 7.97036C38.4388 7.97036 36.9823 9.84683 36.9823 12.6034C36.9823 15.3854 38.4388 17.2484 40.6042 17.2484C42.8083 17.2484 44.2529 15.4241 44.2529 12.6034H44.2529Z" fill="white"/>
<path id="Vector_4" d="M57.2097 14.2302C57.4197 16.1081 59.2441 17.3412 61.7371 17.3412C64.1258 17.3412 65.8444 16.1081 65.8444 14.4148C65.8444 12.9449 64.8079 12.0648 62.3536 11.4616L59.8993 10.8703C56.4219 10.0304 54.8075 8.40413 54.8075 5.76516C54.8075 2.49773 57.655 0.253418 61.6983 0.253418C65.6999 0.253418 68.4432 2.49773 68.5355 5.76516H65.6746C65.5034 3.87529 63.9411 2.73453 61.6581 2.73453C59.3751 2.73453 57.8128 3.88871 57.8128 5.56859C57.8128 6.90743 58.8106 7.69525 61.2515 8.29834L63.338 8.81065C67.2234 9.72952 68.8378 11.2903 68.8378 14.0603C68.8378 17.6032 66.0156 19.8222 61.527 19.8222C57.3273 19.8222 54.4918 17.6553 54.3086 14.23L57.2097 14.2302Z" fill="white"/>
<path id="Vector_5" d="M74.9536 2.43213V5.69956H77.5792V7.94388H74.9536V15.5555C74.9536 16.7379 75.4793 17.289 76.6335 17.289C76.9452 17.2835 77.2564 17.2616 77.5658 17.2234V19.4543C77.0468 19.5513 76.5194 19.5952 75.9916 19.5854C73.1963 19.5854 72.1061 18.5354 72.1061 15.8577V7.94388H70.0986V5.69956H72.1061V2.43213H74.9536Z" fill="white"/>
<path id="Vector_6" d="M79.0996 12.6038C79.0996 8.2596 81.6581 5.52979 85.6479 5.52979C89.651 5.52979 92.1976 8.25953 92.1976 12.6038C92.1976 16.9598 89.6644 19.6777 85.6479 19.6777C81.6328 19.6777 79.0996 16.9598 79.0996 12.6038ZM89.3099 12.6038C89.3099 9.62375 87.9443 7.86494 85.6479 7.86494C83.3514 7.86494 81.9873 9.63716 81.9873 12.6038C81.9873 15.5957 83.3514 17.3411 85.6479 17.3411C87.9443 17.3411 89.3099 15.5957 89.3099 12.6038H89.3099Z" fill="white"/>
<path id="Vector_7" d="M94.5352 5.69913H97.2382V8.04915H97.3037C97.4866 7.31519 97.9166 6.66656 98.5214 6.21228C99.1262 5.75801 99.8689 5.52578 100.625 5.55465C100.951 5.55351 101.277 5.58898 101.596 5.66039V8.31127C101.183 8.18528 100.753 8.12743 100.322 8.14001C99.9107 8.12331 99.5002 8.1959 99.1192 8.3528C98.7382 8.5097 98.3957 8.7472 98.1151 9.04898C97.8345 9.35076 97.6226 9.70969 97.4939 10.1011C97.3651 10.4925 97.3226 10.9072 97.3692 11.3166V19.506H94.5352L94.5352 5.69913Z" fill="white"/>
<path id="Vector_8" d="M114.662 15.4512C114.28 17.9576 111.84 19.6777 108.717 19.6777C104.7 19.6777 102.207 16.9866 102.207 12.6693C102.207 8.33853 104.713 5.52979 108.597 5.52979C112.417 5.52979 114.82 8.15385 114.82 12.3402V13.3112H105.068V13.4824C105.023 13.9905 105.087 14.5024 105.255 14.9841C105.423 15.4658 105.691 15.9061 106.042 16.276C106.394 16.6459 106.82 16.9368 107.292 17.1294C107.764 17.3221 108.272 17.412 108.782 17.3932C109.452 17.456 110.124 17.3008 110.698 16.951C111.273 16.6011 111.719 16.0751 111.971 15.4512L114.662 15.4512ZM105.081 11.3304H111.984C112.009 10.8736 111.94 10.4163 111.781 9.9875C111.621 9.55866 111.374 9.16744 111.056 8.8384C110.738 8.50935 110.356 8.24959 109.933 8.07541C109.51 7.90123 109.055 7.81639 108.597 7.82622C108.136 7.82347 107.678 7.91214 107.251 8.08712C106.824 8.2621 106.436 8.51993 106.109 8.84572C105.782 9.17151 105.523 9.55882 105.347 9.98529C105.17 10.4118 105.08 10.8689 105.081 11.3305V11.3304Z" fill="white"/>
</g>
</svg>
