<svg width="52" height="52" viewBox="0 0 52 52" fill="none" xmlns="http://www.w3.org/2000/svg">
<rect width="52" height="52" rx="8" fill="#F2F5F9"/>
<path d="M16 36H36" stroke="#263141" stroke-width="1.5" stroke-miterlimit="10" stroke-linecap="round" stroke-linejoin="round"/>
<path d="M23.75 18V36H28.25V18C28.25 16.9 27.8 16 26.45 16H25.55C24.2 16 23.75 16.9 23.75 18Z" stroke="#263141" stroke-width="1.5" stroke-linecap="round" stroke-linejoin="round"/>
<path d="M17 24V36H21V24C21 22.9 20.6 22 19.4 22H18.6C17.4 22 17 22.9 17 24Z" stroke="#263141" stroke-width="1.5" stroke-linecap="round" stroke-linejoin="round"/>
<path d="M31 29V36H35V29C35 27.9 34.6 27 33.4 27H32.6C31.4 27 31 27.9 31 29Z" stroke="#263141" stroke-width="1.5" stroke-linecap="round" stroke-linejoin="round"/>
</svg>
