<svg width="36" height="40" viewBox="0 0 36 40" fill="none" xmlns="http://www.w3.org/2000/svg">
<g id="logo">
<path id="path26" d="M17.1166 19.4739L0.961914 36.6202C0.962521 36.6238 0.963735 36.6268 0.964342 36.6303C1.45976 38.4921 3.16029 39.863 5.17855 39.863C5.98534 39.863 6.74281 39.6449 7.3924 39.262L7.44399 39.2318L25.6282 28.7388L17.1166 19.4739" fill="#EB3131"/>
<path id="path28" d="M33.4607 16.5542L33.4452 16.5436L25.5946 11.9925L16.75 19.8628L25.6254 28.7371L33.4346 24.2312C34.8037 23.4921 35.7331 22.0488 35.7331 20.3844C35.7331 18.7319 34.8162 17.2957 33.4607 16.5542" fill="#F6B60B"/>
<path id="path30" d="M0.961633 4.07734C0.864521 4.43544 0.813477 4.81054 0.813477 5.20005V35.4984C0.813477 35.8872 0.863914 36.2635 0.96224 36.6204L17.6729 19.9127L0.961633 4.07734Z" fill="#5778C5"/>
<path id="path32" d="M17.2364 20.3489L25.598 11.9897L7.43443 1.45877C6.77422 1.06334 6.0037 0.835133 5.17915 0.835133C3.16089 0.835133 1.4581 2.20851 0.962521 4.0726C0.961914 4.07442 0.961914 4.07564 0.961914 4.07731L17.2364 20.3489Z" fill="#3BAD49"/>
</g>
</svg>
