<svg width="186" height="60" viewBox="0 0 186 60" fill="none" xmlns="http://www.w3.org/2000/svg">
<g clip-path="url(#clip0_210_32309)">
<path d="M74.0013 36.2918C74.0013 37.5089 73.7534 38.5964 73.2575 39.5543C72.7729 40.5122 72.1024 41.3066 71.2459 41.9377C70.2542 42.6815 69.1611 43.2111 67.9666 43.5267C66.7833 43.8422 65.2789 44 63.4532 44H52.4657V18.83H62.2361C64.2646 18.83 65.7465 18.8976 66.6819 19.0329C67.6285 19.1681 68.5639 19.4667 69.4879 19.9288C70.4458 20.4134 71.1558 21.067 71.6178 21.8896C72.0911 22.701 72.3278 23.6307 72.3278 24.6788C72.3278 25.8959 72.0066 26.9721 71.3643 27.9074C70.7219 28.8315 69.8147 29.5528 68.6427 30.0711V30.2064C70.2881 30.5332 71.5897 31.2093 72.5475 32.2349C73.5167 33.2604 74.0013 34.6127 74.0013 36.2918ZM65.6845 25.9466C65.6845 25.5296 65.5775 25.1127 65.3634 24.6957C65.1605 24.2787 64.7943 23.9688 64.2646 23.766C63.7913 23.5857 63.1997 23.4899 62.4897 23.4786C61.791 23.4561 60.8049 23.4448 59.5315 23.4448H58.923V28.7695H59.9372C60.9627 28.7695 61.8361 28.7526 62.5573 28.7188C63.2786 28.685 63.8476 28.5723 64.2646 28.3808C64.8506 28.1216 65.2338 27.7891 65.4141 27.3834C65.5944 26.9665 65.6845 26.4875 65.6845 25.9466ZM67.2735 36.1904C67.2735 35.3903 67.1157 34.7761 66.8002 34.3478C66.4959 33.9083 65.9719 33.5815 65.2281 33.3674C64.721 33.2209 64.0223 33.142 63.132 33.1308C62.2418 33.1195 61.3121 33.1139 60.3429 33.1139H58.923V39.3852H59.3963C61.2219 39.3852 62.5291 39.3796 63.318 39.3683C64.1068 39.357 64.8337 39.2105 65.4986 38.9288C66.1748 38.6471 66.6368 38.2752 66.8847 37.8132C67.1439 37.3398 67.2735 36.7989 67.2735 36.1904ZM97.1935 35.6325H83.2647C83.3548 37.1201 83.9183 38.2583 84.955 39.0471C86.0031 39.836 87.5414 40.2304 89.5698 40.2304C90.8545 40.2304 92.0998 39.9994 93.3056 39.5374C94.5114 39.0753 95.4637 38.5795 96.1624 38.0498H96.8385V42.9351C95.4637 43.4872 94.1677 43.8873 92.9506 44.1352C91.7335 44.3832 90.3869 44.5071 88.9106 44.5071C85.1015 44.5071 82.1828 43.6507 80.1543 41.9377C78.1259 40.2248 77.1116 37.785 77.1116 34.6183C77.1116 31.4854 78.0695 29.0062 79.9853 27.1806C81.9123 25.3437 84.5494 24.4252 87.8963 24.4252C90.9841 24.4252 93.3056 25.2084 94.8608 26.7749C96.4159 28.33 97.1935 30.5726 97.1935 33.5026V35.6325ZM91.1419 32.0658C91.1081 30.7924 90.7925 29.8345 90.1953 29.1921C89.598 28.5498 88.6683 28.2286 87.4061 28.2286C86.2341 28.2286 85.2706 28.5329 84.5155 29.1414C83.7605 29.75 83.3379 30.7248 83.2477 32.0658H91.1419ZM120.555 44H114.436V34.5845C114.436 33.8182 114.396 33.0575 114.317 32.3025C114.238 31.5362 114.103 30.9727 113.912 30.6121C113.686 30.1951 113.354 29.8908 112.914 29.6993C112.486 29.5077 111.883 29.4119 111.105 29.4119C110.553 29.4119 109.99 29.502 109.415 29.6824C108.852 29.8627 108.237 30.15 107.573 30.5445V44H101.487V17.6975H107.573V27.113C108.654 26.2678 109.691 25.6198 110.683 25.169C111.686 24.7182 112.796 24.4928 114.013 24.4928C116.064 24.4928 117.664 25.0901 118.814 26.2847C119.974 27.4792 120.555 29.2654 120.555 31.6432V44ZM145.573 34.5169C145.573 37.6385 144.66 40.1008 142.834 41.9039C141.02 43.6957 138.467 44.5916 135.177 44.5916C131.886 44.5916 129.328 43.6957 127.502 41.9039C125.688 40.1008 124.781 37.6385 124.781 34.5169C124.781 31.3727 125.694 28.9048 127.519 27.113C129.356 25.3211 131.909 24.4252 135.177 24.4252C138.49 24.4252 141.048 25.3268 142.851 27.1299C144.665 28.9329 145.573 31.3953 145.573 34.5169ZM138.084 39.1317C138.479 38.6471 138.772 38.0667 138.963 37.3906C139.166 36.7031 139.267 35.7565 139.267 34.5507C139.267 33.435 139.166 32.4997 138.963 31.7446C138.76 30.9896 138.479 30.3867 138.118 29.9359C137.757 29.4739 137.323 29.1471 136.816 28.9555C136.309 28.7639 135.763 28.6681 135.177 28.6681C134.591 28.6681 134.067 28.747 133.605 28.9048C133.154 29.0625 132.72 29.3781 132.303 29.8514C131.931 30.2909 131.632 30.8938 131.407 31.6601C131.193 32.4264 131.086 33.39 131.086 34.5507C131.086 35.5875 131.182 36.489 131.373 37.2553C131.565 38.0104 131.847 38.6189 132.218 39.081C132.579 39.5205 133.007 39.8416 133.503 40.0445C134.01 40.2473 134.585 40.3487 135.227 40.3487C135.78 40.3487 136.304 40.2586 136.799 40.0783C137.307 39.8867 137.735 39.5712 138.084 39.1317ZM169.34 34.5169C169.34 37.6385 168.427 40.1008 166.601 41.9039C164.787 43.6957 162.234 44.5916 158.944 44.5916C155.653 44.5916 153.095 43.6957 151.269 41.9039C149.455 40.1008 148.548 37.6385 148.548 34.5169C148.548 31.3727 149.461 28.9048 151.286 27.113C153.123 25.3211 155.676 24.4252 158.944 24.4252C162.257 24.4252 164.815 25.3268 166.618 27.1299C168.432 28.9329 169.34 31.3953 169.34 34.5169ZM161.851 39.1317C162.246 38.6471 162.539 38.0667 162.73 37.3906C162.933 36.7031 163.034 35.7565 163.034 34.5507C163.034 33.435 162.933 32.4997 162.73 31.7446C162.527 30.9896 162.246 30.3867 161.885 29.9359C161.524 29.4739 161.09 29.1471 160.583 28.9555C160.076 28.7639 159.53 28.6681 158.944 28.6681C158.358 28.6681 157.834 28.747 157.372 28.9048C156.921 29.0625 156.487 29.3781 156.07 29.8514C155.698 30.2909 155.399 30.8938 155.174 31.6601C154.96 32.4264 154.853 33.39 154.853 34.5507C154.853 35.5875 154.949 36.489 155.14 37.2553C155.332 38.0104 155.614 38.6189 155.985 39.081C156.346 39.5205 156.774 39.8416 157.27 40.0445C157.777 40.2473 158.352 40.3487 158.994 40.3487C159.547 40.3487 160.071 40.2586 160.566 40.0783C161.074 39.8867 161.502 39.5712 161.851 39.1317ZM186.007 22.1601H185.55C185.28 22.0812 184.925 21.9911 184.486 21.8896C184.057 21.7882 183.595 21.7375 183.099 21.7375C181.905 21.7375 181.093 21.9516 180.665 22.3798C180.248 22.8081 180.04 23.6364 180.04 24.8647V25.0169H184.739V29.1414H180.243V44H174.157V29.1414H171.554V25.0169H174.157V24.4928C174.157 22.1714 174.771 20.4303 176 19.2695C177.239 18.1088 179.11 17.5284 181.612 17.5284C182.513 17.5284 183.33 17.5622 184.063 17.6298C184.795 17.6862 185.443 17.7651 186.007 17.8665V22.1601Z" fill="#111111"/>
<path d="M0 49.4414L2.45449 49.4312L4.90873 49.4211L6.1646 48.0366C6.85543 47.2751 7.50196 46.5644 7.60156 46.4572C7.85117 46.188 9.98508 43.8329 10.3049 43.4737C10.6784 43.0538 17.1782 35.8893 17.2822 35.7826C17.3302 35.7335 17.7521 35.2679 18.22 34.7476C18.6879 34.2275 19.0926 33.802 19.1193 33.802C19.146 33.802 19.5507 34.2275 20.0186 34.7476C20.4865 35.2679 20.9091 35.734 20.9576 35.7838C21.0626 35.8915 27.558 43.0512 27.9339 43.4737C28.2513 43.8304 30.3857 46.186 30.6373 46.4572C30.7366 46.5644 31.3832 47.2751 32.074 48.0366L33.3299 49.4211L35.7841 49.4312L38.2386 49.4414V31.3451V13.2485L35.7858 13.2587L33.3333 13.2689L32.9929 13.6394C32.8059 13.8431 32.4305 14.2556 32.1591 14.5559C31.8875 14.8562 31.3902 15.4045 31.054 15.7745C30.7175 16.1446 30.164 16.7544 29.8236 17.1299C28.3612 18.7428 27.943 19.2036 27.2218 19.9963C26.8021 20.4575 26.3582 20.9487 26.2353 21.0882C26.1125 21.2276 25.7797 21.5962 25.4958 21.9072C24.9237 22.5342 23.8951 23.6683 23.4622 24.1497C23.3078 24.3212 23.0359 24.6195 22.8578 24.8126C22.5206 25.1779 21.1844 26.6532 20.7914 27.094C20.6671 27.2334 20.3566 27.5757 20.1008 27.8546C19.8454 28.1334 19.5326 28.48 19.4058 28.6249C19.2654 28.7851 19.1931 28.8661 19.1216 28.8678C19.0485 28.8695 18.9762 28.7885 18.8327 28.6249C18.706 28.48 18.3932 28.1334 18.1377 27.8546C17.8823 27.5757 17.5715 27.2334 17.4472 27.094C17.0541 26.6532 15.718 25.1779 15.3808 24.8126C15.2026 24.6195 14.9308 24.3212 14.7763 24.1497C14.3434 23.6683 13.3152 22.5342 12.7428 21.9072C12.4589 21.5962 12.1261 21.2276 12.0032 21.0882C11.8804 20.9487 11.4365 20.4575 11.0168 19.9963C10.5971 19.5351 9.98337 18.8594 9.65276 18.4947C9.32215 18.1301 8.77325 17.5247 8.43286 17.1493C8.0927 16.7739 7.535 16.1597 7.19362 15.7844C6.85249 15.409 6.35107 14.8562 6.07944 14.5559C5.80805 14.2556 5.4329 13.8431 5.2457 13.6394L4.9053 13.2689L2.45277 13.2587L0 13.2485V31.3451V49.4414ZM8.60636 22.1546C8.76273 22.3295 10.6813 24.4466 12.8698 26.8593C15.0583 29.2717 16.8606 31.2741 16.875 31.309C16.9019 31.3734 16.7465 31.5607 15.8421 32.554C15.5589 32.865 15.0529 33.4222 14.7174 33.7923C14.3819 34.1621 13.832 34.7677 13.4955 35.1377C12.6424 36.0755 11.4088 37.4382 11.1387 37.7408C11.0143 37.8803 10.6808 38.2487 10.3974 38.5599C9.87741 39.1307 9.18389 39.895 8.03569 41.163C7.27952 41.9979 7.06099 42.2385 6.5745 42.7717C5.8149 43.6045 4.67233 44.8672 4.41122 45.1629C4.0833 45.5343 3.84495 45.7746 3.80457 45.7746C3.78793 45.7746 3.77447 39.2812 3.77447 31.3451C3.77447 23.4087 3.79528 16.9158 3.82073 16.9162C3.84642 16.9169 4.86957 18.024 6.09461 19.3769C7.3199 20.7295 8.44999 21.9797 8.60636 22.1546ZM34.434 45.7746C34.3934 45.7746 34.154 45.5331 33.8278 45.1629C33.5922 44.8956 33.1292 44.3842 31.6629 42.7717C31.0215 42.0664 30.8472 41.8743 30.2029 41.163C29.8583 40.7823 29.3009 40.168 28.9646 39.7981C27.9611 38.6942 27.341 38.0097 27.1004 37.7408C26.82 37.4273 25.5594 36.0354 24.7521 35.1474C24.4205 34.7828 23.8707 34.1772 23.5303 33.802C23.1899 33.4265 22.6796 32.865 22.3965 32.554C21.492 31.5607 21.3366 31.3734 21.3636 31.309C21.378 31.2741 23.1803 29.2717 25.3688 26.8593C27.5573 24.4466 29.4758 22.3295 29.6322 22.1546C31.2297 20.3669 34.3814 16.917 34.4179 16.9162C34.4433 16.9158 34.4641 23.4087 34.4641 31.3451C34.4641 39.2812 34.4506 45.7746 34.434 45.7746Z" fill="#FF4D4D"/>
<path d="M38.1987 13.2485V49.4211H33.2934L16.8379 31.3348L19.3659 28.6045L33.2934 13.2485H38.1987ZM34.4242 16.8959L21.3209 31.3246L34.4242 45.7543V16.8959Z" fill="#FFC5BB"/>
</g>
<defs>
<clipPath id="clip0_210_32309">
<rect width="186" height="60" fill="white"/>
</clipPath>
</defs>
</svg>
