<svg width="129" height="26" viewBox="0 0 129 26" fill="none" xmlns="http://www.w3.org/2000/svg">
<path d="M100.266 19.6741H103.098V0.704615H100.266V19.6741ZM125.769 7.53783L122.523 15.7621H122.426L119.058 7.53783H116.008L121.059 19.0327L118.179 25.4266H121.134L128.918 7.53783H125.769ZM109.712 17.5195C108.783 17.5195 107.49 17.056 107.49 15.9085C107.49 14.4443 109.102 13.883 110.492 13.883C111.738 13.883 112.322 14.1515 113.079 14.5179C112.859 16.2748 111.346 17.5195 109.712 17.5195V17.5195ZM110.053 7.12282C108.003 7.12282 105.88 8.02613 105.002 10.0273L107.515 11.0764C108.052 10.0273 109.052 9.68527 110.102 9.68527C111.566 9.68527 113.055 10.5643 113.079 12.1262V12.3212C112.566 12.0283 111.469 11.5892 110.126 11.5892C107.418 11.5892 104.659 13.0774 104.659 15.8598C104.659 18.398 106.88 20.0333 109.369 20.0333C111.273 20.0333 112.322 19.1791 112.982 18.1787H113.079V19.6427H115.812V12.3697C115.812 9.00244 113.299 7.12282 110.053 7.12282V7.12282ZM92.5546 9.84703H88.5274V3.34476H92.5546C94.6714 3.34476 95.8732 5.09737 95.8732 6.59582C95.8732 8.06589 94.6714 9.84703 92.5546 9.84703ZM92.4818 0.704615H85.6974V19.6741H88.5274V12.4872H92.4818C95.6198 12.4872 98.7046 10.2152 98.7046 6.59582C98.7046 2.97664 95.6198 0.704615 92.4818 0.704615ZM55.4857 17.523C53.5296 17.523 51.8918 15.8853 51.8918 13.6359C51.8918 11.3628 53.5296 9.70014 55.4857 9.70014C57.4169 9.70014 58.9325 11.3628 58.9325 13.6359C58.9325 15.8853 57.4169 17.523 55.4857 17.523V17.523ZM58.7369 8.60002H58.639C58.0037 7.84237 56.7808 7.15787 55.2409 7.15787C52.014 7.15787 49.0563 9.99346 49.0563 13.6359C49.0563 17.254 52.014 20.0653 55.2409 20.0653C56.7808 20.0653 58.0037 19.3806 58.639 18.5989H58.7369V19.5277C58.7369 21.9971 57.4169 23.3171 55.2901 23.3171C53.5545 23.3171 52.4788 22.0699 52.0383 21.019L49.5696 22.0457C50.2785 23.7568 52.161 25.8594 55.2901 25.8594C58.6147 25.8594 61.4261 23.9033 61.4261 19.1365V7.54906H58.7369V8.60002ZM63.3815 19.6741H66.2173V0.704009H63.3815V19.6741ZM70.3978 13.416C70.3243 10.9223 72.329 9.65143 73.7711 9.65143C74.8964 9.65143 75.8494 10.2133 76.1665 11.0207L70.3978 13.416ZM79.1983 11.2649C78.6611 9.82214 77.0223 7.15787 73.6733 7.15787C70.3486 7.15787 67.5864 9.77358 67.5864 13.6116C67.5864 17.2297 70.3243 20.0653 73.991 20.0653C76.9495 20.0653 78.6611 18.2562 79.3698 17.2053L77.1695 15.7382C76.4366 16.8141 75.4336 17.523 73.991 17.523C72.5488 17.523 71.5223 16.8628 70.8619 15.5675L79.4912 11.9981L79.1983 11.2649ZM10.447 9.13809V11.876H16.9985C16.8029 13.416 16.2895 14.5404 15.5072 15.3228C14.5541 16.2765 13.0628 17.3274 10.447 17.3274C6.41331 17.3274 3.25997 14.0762 3.25997 10.0426C3.25997 6.00904 6.41331 2.75737 10.447 2.75737C12.6229 2.75737 14.2114 3.61319 15.385 4.71332L17.3162 2.78226C15.6785 1.21735 13.5025 0.0195012 10.447 0.0195012C4.92199 0.0195012 0.277344 4.51772 0.277344 10.0426C0.277344 15.5675 4.92199 20.0653 10.447 20.0653C13.4297 20.0653 15.6785 19.0879 17.4384 17.254C19.2474 15.4449 19.8099 12.9026 19.8099 10.8494C19.8099 10.2133 19.7612 9.62716 19.6629 9.13809H10.447ZM27.2583 17.523C25.3022 17.523 23.6153 15.9095 23.6153 13.6116C23.6153 11.2892 25.3022 9.70014 27.2583 9.70014C29.2137 9.70014 30.9006 11.2892 30.9006 13.6116C30.9006 15.9095 29.2137 17.523 27.2583 17.523V17.523ZM27.2583 7.15787C23.6888 7.15787 20.7796 9.87131 20.7796 13.6116C20.7796 17.3274 23.6888 20.0653 27.2583 20.0653C30.8271 20.0653 33.7363 17.3274 33.7363 13.6116C33.7363 9.87131 30.8271 7.15787 27.2583 7.15787ZM41.3903 17.523C39.4349 17.523 37.7479 15.9095 37.7479 13.6116C37.7479 11.2892 39.4349 9.70014 41.3903 9.70014C43.3458 9.70014 45.0327 11.2892 45.0327 13.6116C45.0327 15.9095 43.3458 17.523 41.3903 17.523ZM41.3903 7.15787C37.8209 7.15787 34.9123 9.87131 34.9123 13.6116C34.9123 17.3274 37.8209 20.0653 41.3903 20.0653C44.9592 20.0653 47.8684 17.3274 47.8684 13.6116C47.8684 9.87131 44.9592 7.15787 41.3903 7.15787Z" fill="white"/>
</svg>
