<svg width="184" height="61" viewBox="0 0 184 61" fill="none" xmlns="http://www.w3.org/2000/svg">
<rect x="0.850586" width="182.488" height="61" rx="10" fill="#0F1113"/>
<path d="M38.6235 30.9595C38.6399 29.6867 38.978 28.4386 39.6064 27.3316C40.2347 26.2245 41.1329 25.2943 42.2173 24.6276C41.5284 23.6438 40.6196 22.8341 39.563 22.2629C38.5064 21.6917 37.3312 21.3747 36.1308 21.3372C33.5699 21.0684 31.0873 22.8695 29.7823 22.8695C28.4521 22.8695 26.4429 21.3639 24.2794 21.4084C22.8799 21.4536 21.516 21.8605 20.3206 22.5896C19.1252 23.3186 18.139 24.3449 17.4582 25.5684C14.5088 30.6747 16.7088 38.1793 19.534 42.3069C20.9475 44.328 22.5995 46.5857 24.7611 46.5057C26.8764 46.4179 27.6664 45.1568 30.2197 45.1568C32.7493 45.1568 33.4905 46.5057 35.696 46.4548C37.9658 46.4179 39.3958 44.4246 40.7598 42.3843C41.7754 40.9442 42.5569 39.3525 43.0754 37.6682C41.7567 37.1105 40.6314 36.1769 39.8397 34.9839C39.048 33.7909 38.6251 32.3913 38.6235 30.9595Z" fill="white"/>
<path d="M34.4578 18.6223C35.6954 17.1366 36.3051 15.227 36.1575 13.2991C34.2667 13.4977 32.5202 14.4013 31.2659 15.83C30.6527 16.5279 30.183 17.3399 29.8837 18.2195C29.5844 19.099 29.4614 20.029 29.5218 20.9561C30.4675 20.9658 31.4031 20.7609 32.2581 20.3566C33.1131 19.9523 33.8652 19.3593 34.4578 18.6223Z" fill="white"/>
<path d="M65.3619 41.388H58.1435L56.41 46.5065H53.3525L60.1897 27.5691H63.3663L70.2035 46.5065H67.0939L65.3619 41.388ZM58.8911 39.026H64.6129L61.7922 30.7189H61.7133L58.8911 39.026Z" fill="white"/>
<path d="M84.9696 39.6035C84.9696 43.894 82.6732 46.6506 79.2077 46.6506C78.3298 46.6965 77.4567 46.4943 76.6884 46.0671C75.9202 45.6399 75.2877 45.005 74.8635 44.235H74.7979V51.0737H71.9639V32.6993H74.7071V34.9957H74.7593C75.203 34.2294 75.8461 33.5978 76.6202 33.168C77.3944 32.7382 78.2705 32.5263 79.1555 32.5548C82.6597 32.5548 84.9696 35.3248 84.9696 39.6035ZM82.0566 39.6035C82.0566 36.8081 80.612 34.9704 78.4079 34.9704C76.2425 34.9704 74.786 36.8468 74.786 39.6035C74.786 42.3854 76.2425 44.2485 78.4079 44.2485C80.612 44.2485 82.0566 42.4241 82.0566 39.6035Z" fill="white"/>
<path d="M100.166 39.6034C100.166 43.894 97.8695 46.6506 94.404 46.6506C93.5261 46.6965 92.653 46.4943 91.8847 46.0671C91.1164 45.6399 90.484 45.005 90.0598 44.235H89.9942V51.0737H87.1602V32.6992H89.9034V34.9957H89.9555C90.3992 34.2294 91.0423 33.5978 91.8165 33.168C92.5906 32.7382 93.4668 32.5262 94.3518 32.5548C97.856 32.5548 100.166 35.3248 100.166 39.6034ZM97.2529 39.6034C97.2529 36.8081 95.8083 34.9704 93.6042 34.9704C91.4388 34.9704 89.9823 36.8468 89.9823 39.6034C89.9823 42.3854 91.4388 44.2484 93.6042 44.2484C95.8083 44.2484 97.2529 42.4241 97.2529 39.6034H97.2529Z" fill="white"/>
<path d="M110.21 41.2302C110.42 43.1081 112.244 44.3412 114.737 44.3412C117.126 44.3412 118.844 43.1081 118.844 41.4148C118.844 39.9449 117.808 39.0648 115.354 38.4616L112.899 37.8703C109.422 37.0304 107.808 35.4041 107.808 32.7652C107.808 29.4977 110.655 27.2534 114.698 27.2534C118.7 27.2534 121.443 29.4977 121.536 32.7652H118.675C118.503 30.8753 116.941 29.7345 114.658 29.7345C112.375 29.7345 110.813 30.8887 110.813 32.5686C110.813 33.9074 111.811 34.6953 114.252 35.2983L116.338 35.8106C120.223 36.7295 121.838 38.2903 121.838 41.0603C121.838 44.6032 119.016 46.8222 114.527 46.8222C110.327 46.8222 107.492 44.6553 107.309 41.23L110.21 41.2302Z" fill="white"/>
<path d="M127.954 29.4321V32.6996H130.579V34.9439H127.954V42.5555C127.954 43.7379 128.479 44.289 129.633 44.289C129.945 44.2835 130.256 44.2616 130.566 44.2234V46.4543C130.047 46.5513 129.519 46.5952 128.992 46.5854C126.196 46.5854 125.106 45.5354 125.106 42.8577V34.9439H123.099V32.6996H125.106V29.4321H127.954Z" fill="white"/>
<path d="M132.1 39.6038C132.1 35.2596 134.658 32.5298 138.648 32.5298C142.651 32.5298 145.198 35.2595 145.198 39.6038C145.198 43.9598 142.664 46.6777 138.648 46.6777C134.633 46.6777 132.1 43.9598 132.1 39.6038ZM142.31 39.6038C142.31 36.6238 140.944 34.8649 138.648 34.8649C136.351 34.8649 134.987 36.6372 134.987 39.6038C134.987 42.5957 136.351 44.3411 138.648 44.3411C140.944 44.3411 142.31 42.5957 142.31 39.6038H142.31Z" fill="white"/>
<path d="M147.535 32.6991H150.238V35.0492H150.304C150.487 34.3152 150.917 33.6666 151.521 33.2123C152.126 32.758 152.869 32.5258 153.625 32.5546C153.951 32.5535 154.277 32.589 154.596 32.6604V35.3113C154.183 35.1853 153.753 35.1274 153.322 35.14C152.911 35.1233 152.5 35.1959 152.119 35.3528C151.738 35.5097 151.396 35.7472 151.115 36.049C150.835 36.3508 150.623 36.7097 150.494 37.1011C150.365 37.4925 150.323 37.9072 150.369 38.3166V46.506H147.535L147.535 32.6991Z" fill="white"/>
<path d="M167.662 42.4512C167.28 44.9576 164.84 46.6777 161.717 46.6777C157.7 46.6777 155.207 43.9866 155.207 39.6693C155.207 35.3385 157.713 32.5298 161.597 32.5298C165.417 32.5298 167.82 35.1539 167.82 39.3402V40.3112H158.068V40.4824C158.023 40.9906 158.087 41.5024 158.255 41.9841C158.423 42.4658 158.691 42.9061 159.042 43.276C159.394 43.6459 159.82 43.9368 160.292 44.1294C160.764 44.3221 161.272 44.412 161.782 44.3932C162.452 44.456 163.124 44.3008 163.698 43.951C164.273 43.6011 164.719 43.0751 164.971 42.4512L167.662 42.4512ZM158.081 38.3304H164.984C165.009 37.8736 164.94 37.4163 164.781 36.9875C164.621 36.5587 164.374 36.1674 164.056 35.8384C163.738 35.5094 163.356 35.2496 162.933 35.0754C162.51 34.9012 162.055 34.8164 161.597 34.8262C161.136 34.8235 160.678 34.9121 160.251 35.0871C159.824 35.2621 159.436 35.5199 159.109 35.8457C158.782 36.1715 158.523 36.5588 158.347 36.9853C158.17 37.4118 158.08 37.8689 158.081 38.3305V38.3304Z" fill="white"/>
<path d="M56.876 17.1615H58.0928C58.3022 17.1876 58.5148 17.17 58.7171 17.1099C58.9194 17.0497 59.1071 16.9483 59.2683 16.812C59.4295 16.6757 59.5607 16.5076 59.6536 16.3181C59.7466 16.1286 59.7993 15.9219 59.8084 15.711C59.8084 14.8718 59.1769 14.3297 58.1062 14.3297C57.8916 14.2997 57.6732 14.313 57.4638 14.3689C57.2544 14.4247 57.0584 14.5219 56.8872 14.6547C56.7161 14.7876 56.5733 14.9534 56.4672 15.1424C56.3612 15.3313 56.2941 15.5396 56.2699 15.7549H54.934C54.957 15.3641 55.0602 14.9821 55.2372 14.6329C55.4142 14.2836 55.6612 13.9746 55.9628 13.7249C56.2644 13.4753 56.6142 13.2904 56.9904 13.1818C57.3666 13.0732 57.7611 13.0432 58.1493 13.0936C59.9409 13.0936 61.2024 14.0966 61.2024 15.5405C61.2066 16.0242 61.0447 16.4947 60.7439 16.8734C60.443 17.2522 60.0214 17.5163 59.5493 17.6217V17.7289C60.1089 17.7537 60.636 17.9991 61.0153 18.4115C61.3945 18.8238 61.5951 19.3695 61.5732 19.9293C61.5318 20.3317 61.4104 20.7219 61.2163 21.0768C61.0221 21.4317 60.7591 21.7443 60.4426 21.9963C60.1261 22.2482 59.7624 22.4345 59.373 22.5441C58.9835 22.6537 58.5762 22.6844 58.1747 22.6345C57.7724 22.6894 57.3631 22.6627 56.9714 22.556C56.5796 22.4493 56.2133 22.2648 55.8944 22.0136C55.5754 21.7623 55.3103 21.4494 55.1149 21.0935C54.9195 20.7376 54.7977 20.3459 54.7568 19.942H56.1136C56.1955 20.8124 56.9952 21.3739 58.1747 21.3739C59.3542 21.3739 60.1241 20.7433 60.1241 19.8542C60.1241 18.9524 59.3988 18.3969 58.1315 18.3969H56.876V17.1615Z" fill="white"/>
<path d="M63.1143 20.4716C63.1143 19.2355 64.0361 18.5229 65.6683 18.4216L67.5284 18.3144V17.7217C67.5284 16.9964 67.0504 16.5868 66.1226 16.5868C65.366 16.5868 64.8433 16.8646 64.6914 17.3501H63.3793C63.5178 16.1706 64.6288 15.4141 66.1866 15.4141C67.9082 15.4141 68.8792 16.2711 68.8792 17.7217V22.4136H67.5731V21.4485H67.4659C67.2482 21.7947 66.9426 22.0769 66.5802 22.2663C66.2179 22.4557 65.8117 22.5456 65.4033 22.5267C65.115 22.5567 64.8236 22.5259 64.548 22.4364C64.2723 22.3469 64.0185 22.2006 63.8028 22.007C63.5871 21.8134 63.4144 21.5767 63.2958 21.3122C63.1773 21.0478 63.1154 20.7614 63.1143 20.4716ZM67.5284 19.8848V19.3107L65.8515 19.4179C64.9058 19.4812 64.4769 19.8029 64.4769 20.4083C64.4769 21.0263 65.013 21.386 65.7502 21.386C65.9662 21.4078 66.1845 21.386 66.3919 21.3219C66.5993 21.2577 66.7917 21.1524 66.9576 21.0124C67.1235 20.8723 67.2595 20.7003 67.3576 20.5066C67.4556 20.3129 67.5137 20.1014 67.5284 19.8848Z" fill="white"/>
<path d="M72.4763 16.6874V22.4136H71.1211V15.5466H75.6425V16.6873L72.4763 16.6874Z" fill="white"/>
<path d="M83.8551 18.9782C83.8551 21.16 82.7516 22.5279 81.0181 22.5279C80.5926 22.5569 80.1676 22.4638 79.7932 22.2595C79.4188 22.0551 79.1106 21.7481 78.9048 21.3744H78.7976V24.6977H77.4424V15.5477H78.747V16.6826H78.8483C79.0577 16.2959 79.3699 15.9746 79.7505 15.7543C80.131 15.5339 80.5651 15.423 81.0047 15.4338C82.7516 15.4338 83.8551 16.7957 83.8551 18.9782ZM82.4612 18.9782C82.4612 17.5277 81.7746 16.6513 80.6264 16.6513C79.4857 16.6513 78.7723 17.5463 78.7723 18.9842C78.7723 20.4154 79.4857 21.3111 80.6205 21.3111C81.7746 21.3111 82.4612 20.4347 82.4612 18.9782Z" fill="white"/>
<path d="M85.66 24.8731V23.7063C85.8066 23.7249 85.9544 23.7334 86.1022 23.7316C86.391 23.753 86.6774 23.667 86.9066 23.4901C87.1359 23.3133 87.2917 23.058 87.3443 22.7733L87.4455 22.4389L84.96 15.5466H86.4358L88.1575 21.001H88.2647L89.9803 15.5466H91.4174L88.8574 22.6973C88.2707 24.3683 87.6213 24.9044 86.2214 24.9044C86.1082 24.9044 85.7866 24.8917 85.66 24.8731Z" fill="white"/>
<path d="M92.4736 20.4649H93.8229C93.9554 21.0703 94.5229 21.386 95.3166 21.386C96.2191 21.386 96.7731 20.9884 96.7731 20.3704C96.7731 19.7084 96.2757 19.3927 95.3166 19.3927H94.289V18.3398H95.2988C96.1178 18.3398 96.5348 18.0248 96.5348 17.4507C96.5348 16.9466 96.1313 16.5616 95.2988 16.5616C94.5407 16.5616 93.9867 16.8833 93.8988 17.4254H92.5928C92.6904 16.8025 93.0286 16.2428 93.5347 15.8667C94.0407 15.4906 94.6742 15.3281 95.2988 15.4141C96.931 15.4141 97.8648 16.1521 97.8648 17.3122C97.8724 17.6353 97.7689 17.9512 97.5715 18.2071C97.3742 18.4629 97.095 18.6433 96.7806 18.7181V18.8253C97.1549 18.8736 97.4984 19.0576 97.746 19.3424C97.9937 19.6272 98.1281 19.993 98.1239 20.3704C98.1239 21.6758 97.0129 22.5395 95.3166 22.5395C93.8169 22.5394 92.5987 21.8522 92.4736 20.4649Z" fill="white"/>
<path d="M100.075 22.4136V15.5466H101.419V20.2698H101.526L104.69 15.5466H106.034V22.4136H104.69V17.6651H104.589L101.419 22.4136L100.075 22.4136Z" fill="white"/>
<path d="M113.435 16.6886H111.272V22.4147H109.915V16.6886H107.753V15.5479H113.435V16.6886Z" fill="white"/>
<path d="M120.735 20.5596C120.55 21.1871 120.151 21.7299 119.607 22.093C119.063 22.4561 118.408 22.6165 117.758 22.5462C117.306 22.5582 116.856 22.4715 116.44 22.2923C116.025 22.1131 115.653 21.8455 115.352 21.5083C115.05 21.1711 114.825 20.7722 114.693 20.3394C114.56 19.9065 114.524 19.4501 114.586 19.0018C114.526 18.5521 114.563 18.0947 114.695 17.6606C114.827 17.2265 115.05 16.8257 115.35 16.4855C115.651 16.1454 116.02 15.8736 116.435 15.6888C116.849 15.504 117.298 15.4103 117.752 15.4142C119.663 15.4142 120.817 16.7196 120.817 18.8759V19.3488H115.968V19.4248C115.946 19.6768 115.978 19.9306 116.06 20.1697C116.143 20.4089 116.274 20.6282 116.447 20.8134C116.619 20.9987 116.828 21.1459 117.061 21.2455C117.293 21.3452 117.544 21.3951 117.797 21.392C118.121 21.4308 118.449 21.3723 118.74 21.2241C119.03 21.0758 119.27 20.8445 119.429 20.5595L120.735 20.5596ZM115.968 18.3465H119.435C119.452 18.1162 119.421 17.8848 119.343 17.6672C119.266 17.4497 119.143 17.2507 118.984 17.0832C118.825 16.9157 118.633 16.7833 118.42 16.6945C118.206 16.6057 117.977 16.5625 117.746 16.5676C117.512 16.5644 117.279 16.6083 117.062 16.6966C116.844 16.7848 116.647 16.9158 116.481 17.0816C116.316 17.2474 116.185 17.4448 116.097 17.6621C116.008 17.8793 115.965 18.1121 115.968 18.3465H115.968Z" fill="white"/>
<path d="M126.48 15.5466H129.577C130.92 15.5466 131.708 16.2272 131.708 17.2928C131.71 17.6309 131.596 17.9594 131.385 18.2235C131.173 18.4875 130.878 18.671 130.548 18.7433V18.8505C130.949 18.8758 131.325 19.0543 131.598 19.3489C131.871 19.6435 132.021 20.0318 132.016 20.4336C132.016 21.6317 131.115 22.4136 129.608 22.4136H126.48V15.5466ZM127.824 16.5869V18.365H129.167C129.986 18.365 130.378 18.0501 130.378 17.4692C130.378 16.9339 130.037 16.5869 129.318 16.5869L127.824 16.5869ZM127.824 19.3614V21.3734H129.431C130.232 21.3734 130.661 21.0197 130.661 20.3704C130.661 19.6831 130.175 19.3614 129.261 19.3614L127.824 19.3614Z" fill="white"/>
</svg>
